<svg width="18" height="13" viewBox="0 0 18 13" fill="none" xmlns="http://www.w3.org/2000/svg">
<path fill-rule="evenodd" clip-rule="evenodd" d="M8.58413 0H3.56452C1.4655 0 0 1.44645 0 3.51934V9.48022C0 11.5531 1.4655 12.9996 3.56452 12.9996H8.58413C10.6832 12.9996 12.1486 11.5531 12.1486 9.48022V3.51934C12.1486 1.44645 10.6832 0 8.58413 0ZM8.26846 5.20105C8.26846 5.30358 8.11751 5.53997 7.81561 5.91022C7.51371 6.28048 7.06086 6.78174 6.45706 7.41402H8.25991C8.32257 7.41402 8.37384 7.49947 8.41371 7.67035C8.45928 7.83554 8.48207 8.07194 8.48207 8.37953C8.48207 8.68143 8.44504 8.94915 8.37099 9.1827C8.30263 9.41624 8.20865 9.53301 8.08903 9.53301H3.92794C3.76275 9.53301 3.64313 9.36783 3.56908 9.03745C3.50073 8.70706 3.46655 8.3482 3.46655 7.96086C3.46655 7.87542 3.62605 7.64187 3.94503 7.26023C4.26402 6.87858 4.74535 6.34599 5.38902 5.66244H3.73143C3.57763 5.66244 3.50073 5.41465 3.50073 4.91908C3.50073 4.57162 3.53775 4.24408 3.6118 3.93649C3.68586 3.6232 3.77984 3.46655 3.89377 3.46655H7.8327C8.1232 3.46655 8.26846 4.04472 8.26846 5.20105Z" fill="white"/>
<path d="M15.5626 2.06155C15.943 1.86799 16.3894 1.88822 16.7525 2.11698C17.1156 2.34486 17.3323 2.74078 17.3323 3.17366V9.8261C17.3323 10.2599 17.1156 10.6549 16.7525 10.8828C16.554 11.0068 16.3322 11.0702 16.1086 11.0702C15.9222 11.0702 15.7359 11.0262 15.5617 10.9373L14.2782 10.2898C13.8033 10.0487 13.5086 9.56478 13.5086 9.0272V3.97167C13.5086 3.43321 13.8033 2.9493 14.2782 2.70999L15.5626 2.06155Z" fill="white"/>
</svg>
