<svg width="12" height="12" viewBox="0 0 12 12" fill="none" xmlns="http://www.w3.org/2000/svg">
<path d="M6 1C3.243 1 1 3.243 1 6C1 8.757 3.243 11 6 11C6.733 11 7.4805 10.8145 8.221 10.448L7.7785 9.5515C7.1765 9.849 6.578 10 6 10C3.7945 10 2 8.2055 2 6C2 3.7945 3.7945 2 6 2C8.2055 2 10 3.7945 10 6V6.5C10 6.846 9.8435 7.5 9.25 7.5C8.552 7.5 8.503 6.5905 8.5 6.5V4H7.5V4.0125C7.06964 3.68197 6.54264 3.50192 6 3.5C4.6215 3.5 3.5 4.6215 3.5 6C3.5 7.3785 4.6215 8.5 6 8.5C6.725 8.5 7.374 8.1845 7.831 7.6895C8.093 8.1345 8.535 8.5 9.25 8.5C10.3865 8.5 11 7.4695 11 6.5V6C11 3.243 8.757 1 6 1ZM6 7.5C5.173 7.5 4.5 6.827 4.5 6C4.5 5.173 5.173 4.5 6 4.5C6.827 4.5 7.5 5.173 7.5 6C7.5 6.827 6.827 7.5 6 7.5Z" fill="#FF4D00"/>
</svg>
