<svg width="20" height="20" viewBox="0 0 20 20" fill="none" xmlns="http://www.w3.org/2000/svg">
<path d="M8.60802 13.8274H3.35742" stroke="#FF4D00" stroke-width="1.5" stroke-linecap="round" stroke-linejoin="round"/>
<path d="M10.9502 5.75023H16.2008" stroke="#FF4D00" stroke-width="1.5" stroke-linecap="round" stroke-linejoin="round"/>
<path fill-rule="evenodd" clip-rule="evenodd" d="M7.27158 5.70521C7.27158 4.6255 6.38978 3.75 5.30229 3.75C4.21481 3.75 3.33301 4.6255 3.33301 5.70521C3.33301 6.78492 4.21481 7.66042 5.30229 7.66042C6.38978 7.66042 7.27158 6.78492 7.27158 5.70521Z" stroke="#FF4D00" stroke-width="1.5" stroke-linecap="round" stroke-linejoin="round"/>
<path fill-rule="evenodd" clip-rule="evenodd" d="M16.6661 13.7946C16.6661 12.7149 15.785 11.8394 14.6975 11.8394C13.6093 11.8394 12.7275 12.7149 12.7275 13.7946C12.7275 14.8743 13.6093 15.7498 14.6975 15.7498C15.785 15.7498 16.6661 14.8743 16.6661 13.7946Z" stroke="#FF4D00" stroke-width="1.5" stroke-linecap="round" stroke-linejoin="round"/>
</svg>
