<svg width="16" height="16" viewBox="0 0 16 16" fill="none" xmlns="http://www.w3.org/2000/svg">
<path fill-rule="evenodd" clip-rule="evenodd" d="M5.93366 1.33301H10.047C11.8537 1.33301 13.3137 2.04634 13.3337 3.85967V13.9797C13.3337 14.093 13.307 14.2063 13.2537 14.3063C13.167 14.4663 13.0203 14.5863 12.8403 14.6397C12.667 14.693 12.4737 14.6663 12.3137 14.573L7.99366 12.413L3.66699 14.573C3.56766 14.6257 3.45366 14.6597 3.34033 14.6597C2.96699 14.6597 2.66699 14.353 2.66699 13.9797V3.85967C2.66699 2.04634 4.13366 1.33301 5.93366 1.33301ZM5.48033 6.41301H10.5003C10.787 6.41301 11.0203 6.17901 11.0203 5.88634C11.0203 5.59301 10.787 5.35967 10.5003 5.35967H5.48033C5.19366 5.35967 4.96033 5.59301 4.96033 5.88634C4.96033 6.17901 5.19366 6.41301 5.48033 6.41301Z" fill="#FF4D00"/>
</svg>
