<svg width="24" height="24" viewBox="0 0 24 24" fill="none" xmlns="http://www.w3.org/2000/svg">
<path d="M3.07457 5.94922C3.07457 5.94922 1.8652 6.04484 1.70395 6.31672C1.54082 6.58859 1.53145 7.00672 1.53145 7.46609C1.53145 7.92734 1.5127 8.98484 1.5127 8.98484L1.80145 9.60547C1.80145 9.60547 1.85582 17.5161 1.85582 17.7617C1.85582 18.0055 1.85582 18.3036 2.20832 18.493C2.56082 18.6823 11.5196 23.0098 11.7989 23.1261C12.2208 23.3005 12.4214 23.2348 12.4214 23.2348L22.3758 6.58672C22.3758 6.58672 22.3439 6.13109 21.9296 6.02234C21.6914 5.96234 3.07457 5.94922 3.07457 5.94922Z" fill="#F5B03E"/>
<path d="M12.3147 11.4225C12.1629 11.8406 12.2322 16.1644 12.2585 19.3087C12.2847 22.4512 12.1779 23.1019 12.2585 23.2106C12.3391 23.3194 12.5585 23.2144 13.1791 22.9387C14.3322 22.4287 19.871 19.6875 20.2779 19.4437C20.6847 19.2 21.6785 18.6956 21.8416 18.4237C22.0047 18.1519 22.0929 15.6225 22.1472 13.5919C22.2016 11.5594 22.256 9.93373 22.256 9.93373L22.4997 9.20248C22.4997 9.20248 22.4472 7.22623 22.4379 7.00873C22.421 6.64873 22.3816 6.4631 22.2897 6.5081C22.1585 6.56998 21.0635 7.4681 18.1647 8.8781C16.3441 9.76123 12.4197 11.1337 12.3147 11.4225Z" fill="#E07F14"/>
<path d="M12.3409 2.10188C11.5291 2.06438 9.30718 3.34875 7.16593 4.05188C5.02468 4.755 1.79218 6.16875 1.76406 6.25125C1.73781 6.33188 3.06531 6.92625 3.91281 7.33313C4.91968 7.815 8.76343 9.63563 9.46656 9.93375C10.1716 10.2319 11.8516 10.9294 12.1216 10.9088C12.5003 10.8825 16.0778 9.4725 17.8928 8.60625C19.7078 7.74 21.9766 6.3975 22.0066 6.07125C22.0197 5.925 18.6691 4.67438 16.9984 3.91875C13.7734 2.45813 12.9353 2.13 12.3409 2.10188Z" fill="#FDD717"/>
<path d="M1.52281 9.33207C1.55094 9.68457 1.74406 9.81019 2.23531 10.0239C2.72656 10.2377 12.0134 15.0621 12.2272 15.0621C12.4409 15.0621 12.5047 14.2971 12.2703 14.3177C12.1428 14.3289 9.09219 12.8796 6.24219 11.4321C3.82344 10.2058 1.50781 8.98145 1.50781 8.98145L1.52281 9.33207Z" fill="#E37D14"/>
<path d="M22.5016 9.18555C22.5016 9.18555 12.5847 14.2293 12.4872 14.278C12.3897 14.3268 12.2341 14.3099 12.2341 14.3099L12.2266 15.0618C12.2266 15.0618 12.3184 15.0824 12.4216 15.0505C12.4816 15.0318 22.2147 9.99367 22.2578 9.97867C22.3009 9.96367 22.4884 9.85117 22.5278 9.61305C22.5616 9.4218 22.5016 9.18555 22.5016 9.18555Z" fill="#BA5E0D"/>
<path d="M5.41137 18.2664L7.35199 21.1539L8.20137 21.4445C8.20137 21.4445 8.27074 18.2945 8.29887 15.9601C8.33824 12.5495 8.32324 9.43887 8.37199 9.26262C8.45262 8.96449 12.227 7.74012 12.227 7.74012C12.227 7.74012 16.4907 9.07699 16.6257 9.37512C16.6857 9.50637 16.6389 11.7151 16.6257 14.2895C16.6089 17.5407 16.6145 21.2945 16.6145 21.2945C16.6145 21.2945 17.0551 21.2926 17.1076 21.1295C17.162 20.9664 17.3795 19.7082 17.3795 19.7082L19.0332 8.68512L19.8732 7.60137L18.707 5.38137L13.922 3.02637L12.2776 3.39574L10.4982 3.12387L4.85449 7.17949L5.51262 8.51449L7.12699 9.33762L5.41137 18.2664Z" fill="#AF0F1B"/>
<path d="M17.1152 9.26068C17.012 9.48756 17.072 21.1782 17.072 21.1782C17.072 21.1782 17.5877 20.8932 18.2514 20.5744C18.9114 20.2576 19.3858 20.0607 19.427 19.8957C19.4683 19.7307 19.5414 8.16943 19.5414 8.16943L17.1152 9.26068Z" fill="#DC0D28"/>
<path d="M7.75324 9.01875C7.81512 9.08625 7.71387 21.2175 7.58824 21.2456C7.48887 21.27 5.22949 20.2612 5.22949 20.1581C5.22949 20.055 5.41137 8.46187 5.41137 8.46187C5.41137 8.46187 7.56949 8.8125 7.75324 9.01875ZM12.2307 2.67188C11.6064 2.67188 10.9164 2.85 10.7157 3.37312C10.5151 3.89625 10.4701 4.67438 10.4701 5.25563C10.4701 5.8125 10.3801 7.2375 12.0957 7.215C13.8114 7.1925 13.862 6.55687 13.8882 5.15438C13.9107 3.98438 13.7551 3.41625 13.5995 3.1725C13.4607 2.95313 12.9995 2.67188 12.2307 2.67188Z" fill="#FF2A23"/>
<path d="M11.2389 5.56675C11.6289 5.58925 11.7958 4.73237 12.0958 4.26362C12.3958 3.79675 12.7089 3.48362 12.5964 3.23987C12.5046 3.03737 11.6889 2.97175 11.2483 3.58487C10.9389 4.018 10.8846 5.54612 11.2389 5.56675Z" fill="#FCC9D2"/>
<path d="M13.749 3.07853C13.749 3.07853 14.3021 3.64103 14.4465 4.74353C14.5909 5.84603 14.424 6.7029 14.424 6.7029C14.424 6.7029 17.1728 6.6204 18.1215 6.80228C19.0571 6.98415 19.3834 7.39665 19.3834 7.69665C19.3834 7.99665 18.7684 8.23853 18.144 8.19353C17.5196 8.14853 17.0978 8.11478 17.019 8.27228C16.9403 8.42978 17.0528 8.67353 17.9209 8.73915C18.789 8.80665 19.7921 8.6829 20.1034 7.6029C20.4146 6.5229 20.4259 4.65165 20.3153 3.30353C20.2046 1.9554 19.9609 1.18478 19.3571 0.892276C18.7215 0.586651 17.1296 0.536026 15.6259 1.38165C14.1221 2.22728 13.749 3.07853 13.749 3.07853Z" fill="#FF2A23"/>
<path d="M16.8642 1.79647C16.6692 1.54522 16.041 1.55272 15.7054 1.94085C15.3492 2.35335 15.2704 3.92272 15.7279 4.01272C16.2454 4.11397 16.1517 3.26647 16.5304 2.74335C16.9017 2.23147 17.0535 2.0421 16.8642 1.79647Z" fill="#FCC9D2"/>
<path d="M10.5717 3.13312C10.5717 3.13312 8.46608 0.678746 6.06046 0.716246C4.61296 0.738746 4.24546 1.57312 4.16671 1.91812C4.08796 2.26312 3.48796 5.69437 4.28858 7.5525C5.08921 9.41062 6.75046 8.92875 7.01108 8.86875C7.34483 8.79 8.05546 8.54625 7.98796 8.28937C7.92046 8.0325 5.55983 8.95687 5.53733 7.89937C5.51483 6.84187 7.20796 6.72937 7.98796 6.70687C8.76796 6.68437 10.1048 6.8625 10.1048 6.8625C10.1048 6.8625 9.87046 5.58187 10.0261 4.66875C10.1817 3.75562 10.5717 3.13312 10.5717 3.13312Z" fill="#FF2A23"/>
<path d="M5.41531 1.60706C5.11531 1.91831 4.99156 3.71269 5.18094 4.60331C5.37031 5.49394 5.53719 5.87269 5.92719 5.79581C6.25344 5.73019 6.45031 3.98269 6.60594 3.36769C6.77281 2.71144 7.18531 2.01394 7.01844 1.70831C6.76344 1.23956 5.72844 1.28269 5.41531 1.60706Z" fill="#FCC9D2"/>
</svg>
