<svg width="24" height="24" viewBox="0 0 24 24" fill="none" xmlns="http://www.w3.org/2000/svg">
<path d="M13 14.7998C13 14.358 12.6418 13.9998 12.2 13.9998H11C9.3596 13.9992 7.75023 14.4469 6.34587 15.2947C5.17356 16.0024 4.18133 16.9663 3.44125 18.1101C3.31345 18.3076 2.99988 18.2351 3 17.9998C3 12.746 7.05113 8.43879 12.2001 8.03132C12.6406 7.99646 13 7.64162 13 7.1998V4.66429C13 3.99349 13.7759 3.62055 14.2998 4.0396L22.2191 10.3751C22.6195 10.6954 22.6195 11.3042 22.2191 11.6245L14.2998 17.96C13.7759 18.379 13 18.0061 13 17.3353V14.7998Z" fill="white"/>
</svg>
