<svg width="32" height="32" viewBox="0 0 32 32" fill="none" xmlns="http://www.w3.org/2000/svg">
<path fill-rule="evenodd" clip-rule="evenodd" d="M2.66699 16.008C2.66699 8.64866 8.65155 2.66699 16.0003 2.66699C23.3491 2.66699 29.3337 8.64866 29.3337 16.008C29.3337 23.352 23.3491 29.3337 16.0003 29.3337C8.65155 29.3337 2.66699 23.352 2.66699 16.008ZM20.8909 17.3575C21.0325 17.216 21.2127 16.9973 21.2513 16.9458C21.4572 16.6757 21.5602 16.3412 21.5602 16.008C21.5602 15.6337 21.4443 15.2864 21.2255 15.0034C21.2076 14.9855 21.1725 14.9472 21.1268 14.8975C21.0412 14.8043 20.9183 14.6705 20.8008 14.5531C19.7455 13.4211 16.9913 11.5687 15.5499 11.0027C15.3311 10.914 14.7777 10.7197 14.4817 10.7069C14.1985 10.7069 13.9283 10.7712 13.6709 10.8998C13.3491 11.0799 13.0917 11.3629 12.9501 11.6974C12.86 11.9289 12.7185 12.6236 12.7185 12.6364C12.5769 13.3954 12.4997 14.6303 12.4997 15.9939C12.4997 17.2944 12.5769 18.4766 12.6927 19.2484C12.6959 19.2516 12.707 19.3068 12.7242 19.3926C12.7765 19.6533 12.8854 20.1964 13.0016 20.419C13.2848 20.9593 13.8382 21.2938 14.4302 21.2938H14.4817C14.8678 21.2809 15.6786 20.9465 15.6786 20.9336C17.0428 20.3676 19.7326 18.6052 20.8137 17.4346L20.8909 17.3575Z" fill="white"/>
</svg>
