<svg width="12" height="12" viewBox="0 0 12 12" fill="none" xmlns="http://www.w3.org/2000/svg">
<path fill-rule="evenodd" clip-rule="evenodd" d="M3.05652 2.25H5.95255C7.16356 2.25 8.00907 3.08452 8.00907 4.28046V7.71954C8.00907 8.91548 7.16356 9.75 5.95255 9.75H3.05652C1.84551 9.75 1 8.91548 1 7.71954V4.28046C1 3.08452 1.84551 2.25 3.05652 2.25ZM9.97899 3.43949C10.1985 3.32782 10.456 3.33949 10.6655 3.47147C10.875 3.60294 11 3.83137 11 4.08112V7.91919C11 8.16944 10.875 8.39736 10.6655 8.52883C10.551 8.60041 10.423 8.63695 10.294 8.63695C10.1865 8.63695 10.079 8.61157 9.97849 8.5603L9.23798 8.1867C8.96398 8.04761 8.79398 7.76843 8.79398 7.45827V4.54152C8.79398 4.23086 8.96398 3.95167 9.23798 3.8136L9.97899 3.43949Z" fill="#FF4D00"/>
</svg>
