<svg width="24" height="24" viewBox="0 0 24 24" fill="none" xmlns="http://www.w3.org/2000/svg">
<path d="M10.6523 15.9917L14.7511 16.0236C14.7511 16.0236 14.4248 17.0829 14.1548 17.4992C13.7142 18.1742 13.4948 18.5192 13.3073 19.2111C13.0167 20.2761 13.0411 21.0954 13.0411 21.0954C13.0411 21.0954 13.268 21.0167 13.5436 21.0954C13.8792 21.1911 14.0611 21.4142 14.0311 21.5511C14.003 21.6729 13.6298 21.5904 13.3711 21.8492C13.1667 22.0536 13.088 22.4154 13.0561 22.6498C13.0242 22.8861 12.9923 23.1842 12.5536 23.2461C12.113 23.3098 11.4548 23.3567 11.3123 23.1354C11.1717 22.9161 11.2486 19.0836 11.2486 19.0836L10.6523 15.9917Z" fill="#307D31"/>
<path d="M10.6051 15.1426C10.5264 15.2832 8.6701 15.617 8.6701 15.617C8.6701 15.617 8.04948 15.9488 7.8151 17.0326C7.6876 17.6195 7.71573 18.8082 7.6051 19.2245C7.4476 19.8207 6.7876 20.1676 6.81948 20.3082C6.85135 20.4488 7.42698 20.4395 7.87135 20.2445C8.87635 19.8038 9.0526 18.8926 9.37885 18.1088C9.69385 17.3551 10.2901 16.9595 10.2901 16.9595C10.2901 16.9595 10.1495 17.507 10.2095 18.1107C10.2601 18.6301 10.4232 19.292 10.2095 19.9351C10.0051 20.5482 9.71823 20.9176 9.8326 20.9738C9.91885 21.0151 10.9426 20.912 11.3514 20.0157C11.8032 19.0257 11.8351 18.2138 12.1051 17.6326C12.4032 16.9895 12.9714 16.7157 12.9714 16.7157C12.9714 16.7157 13.3745 16.952 13.8676 17.642C14.417 18.4107 14.8764 19.0576 15.1726 19.4551C15.8664 20.3888 16.8282 20.6832 16.8582 20.5257C16.9051 20.2745 16.3951 19.8713 16.292 19.3801C16.0389 18.1707 16.3857 17.5913 16.0989 16.6632C15.6864 15.3226 14.7132 15.2982 14.3757 15.2345C14.297 15.2232 10.6051 15.1426 10.6051 15.1426Z" fill="#5C9823"/>
<path d="M8.87025 8.31362C8.65837 8.12425 5.51962 5.83675 5.51962 5.83675L5.47275 4.4455C5.47275 4.4455 4.704 2.99237 5.589 1.9105C6.35775 0.971121 7.38337 1.23737 7.38337 1.23737C7.38337 1.23737 7.89712 0.590496 8.79337 0.545496C9.939 0.487371 10.4977 1.45112 10.4977 1.45112L15.6634 2.3005L18.564 4.18675C18.564 4.18675 18.9934 4.048 19.3496 4.29925C19.7209 4.55987 19.599 5.10737 19.5577 5.353C19.5184 5.58737 15.6859 8.6455 15.6859 8.6455L16.0871 14.638L14.7484 16.1324C14.7484 16.1324 14.5609 16.3161 14.1765 16.3649C13.9534 16.393 13.6665 16.303 13.6665 16.303L12.8321 13.9067L8.87025 8.31362Z" fill="#96010C"/>
<path d="M15.591 1.28634L14.8935 1.33884L14.4041 1.74946L14.5785 2.53884C14.5785 2.53884 14.601 3.12946 14.136 3.41259C13.671 3.69571 12.7578 4.16071 12.7578 4.16071L12.1278 5.20321C12.1278 5.20321 11.7228 5.07009 11.0628 4.73071C10.446 4.41196 9.6566 3.68446 9.6566 3.68446L8.24472 3.58884C8.24472 3.58884 7.97472 3.56446 7.74785 3.80446C7.4216 4.15321 7.53785 4.89196 8.17722 5.56884C8.79222 6.21946 10.1235 7.01259 10.4197 7.23196C10.716 7.45134 11.1678 7.73259 11.4247 7.87696C11.6722 8.01571 11.9685 8.21446 12.0978 8.19009C12.2272 8.16384 12.4185 7.72321 13.0241 7.29759C13.6297 6.87196 14.2222 6.51196 15.1897 6.17634C16.1572 5.84071 17.0853 5.45446 17.3685 5.27446C17.6516 5.09446 17.2653 3.87009 16.9166 3.12196C16.5678 2.37384 15.6153 1.20946 15.591 1.28634Z" fill="#AF0C1B"/>
<path d="M12.2004 4.49629C11.9623 4.81129 12.0073 5.17879 12.0073 5.17879C12.0073 5.17879 12.5267 5.49004 13.0385 5.66816C13.9667 5.99066 16.0554 5.90066 17.0604 5.44879C18.0654 4.99691 18.5567 4.60691 18.7104 4.13441C18.8904 3.57941 19.0404 2.45816 17.9604 1.59379C16.7229 0.601912 14.8554 1.14379 14.8554 1.40254C14.8554 1.66129 15.6035 1.45504 15.6035 2.39441C15.6035 3.33379 14.7785 3.90191 13.9404 4.01816C13.1023 4.13441 12.5604 4.01816 12.2004 4.49629Z" fill="#DB132C"/>
<path d="M7.9199 3.68444C7.9199 3.68444 7.82427 3.30569 8.13927 3.00194C8.61552 2.53694 9.22302 2.29319 9.5699 1.91819C9.91677 1.54319 10.4099 0.832569 11.6193 0.667569C13.4118 0.421944 14.5705 1.09319 14.8293 1.91819C15.088 2.74319 14.5968 3.02632 14.0943 3.03944C13.5918 3.05257 13.3124 2.81632 12.3918 2.97569C10.8318 3.24569 10.2899 4.08382 10.1493 4.16257C10.0068 4.23944 9.54365 3.96944 8.91177 3.80069C8.45615 3.67882 8.12615 3.70882 7.9199 3.68444Z" fill="#F71538"/>
<path d="M13.0537 9.07128C13.0537 9.07128 13.3725 8.0119 14.4131 7.34065C15.4556 6.6694 16.215 6.65253 17.5406 6.05065C18.8662 5.44878 19.3237 5.05315 19.5356 4.9144C19.7531 4.7719 19.95 4.64253 20.1018 4.8919C20.1993 5.05315 20.0306 5.71315 19.5825 6.3544C19.125 7.00878 18.675 7.36878 18.3337 8.49565C17.8818 9.98253 18.75 11.3344 17.8237 13.7232C17.5237 14.4957 16.8206 15.2025 16.1662 15.6619C15.5118 16.1213 14.5687 16.2244 14.5687 16.2244C14.5687 16.2244 14.9043 15.99 15.0881 15.1275C15.1781 14.7038 15.3131 13.9519 15.21 13.1513C14.9156 10.8619 13.0537 9.07128 13.0537 9.07128Z" fill="#CD0E1F"/>
<path d="M5.95162 8.7525C5.97412 9.255 5.73787 11.0831 6.0435 12.5512C6.2835 13.7062 7.47225 15.7481 9.69787 16.3481C11.7454 16.9012 13.9372 16.3312 13.9372 16.3312C13.9372 16.3312 14.7641 14.9344 14.346 12.8981C13.8904 10.6781 11.6722 9.02812 9.11475 7.76437C6.04162 6.24562 5.48475 4.41562 5.48475 4.41562C5.48475 4.41562 4.47412 4.15125 4.221 5.06062C3.83287 6.45562 5.91787 7.99312 5.95162 8.7525Z" fill="#E2122D"/>
</svg>
